<svg width="24" height="24" viewBox="0 0 24 24" fill="none" xmlns="http://www.w3.org/2000/svg">
<path d="M6.0603 16.6669C5.70882 17.0184 5.70882 17.5882 6.0603 17.9397C6.41177 18.2911 6.98161 18.2911 7.33309 17.9397L12 13.2727L16.6669 17.9397C17.0184 18.2911 17.5883 18.2911 17.9398 17.9397C18.2912 17.5882 18.2912 17.0184 17.9398 16.6669L13.2729 12L17.9396 7.33309C18.2911 6.98161 18.2911 6.41177 17.9396 6.0603C17.5882 5.70882 17.0184 5.70882 16.6669 6.0603L12 10.7272L7.33315 6.0603C6.98167 5.70882 6.41183 5.70882 6.06036 6.0603C5.70888 6.41177 5.70888 6.98161 6.06036 7.33309L10.7272 12L6.0603 16.6669Z" fill="black"/>
</svg>
